# xmcd
#
# Track frame offsets: 
#        150
#        22282
#        41164
#        60824
#        77799
#        96048
#        115009
#        133253
#        149891
#        163768
#        179285
#        198239
#        212144
#
# Disc length: 3124 seconds
#
# Revision: 0
# Processed by: cddbd v1.5.1PL0 Copyright (c) Steve Scherf et al.
# Submitted via: ExactAudioCopy v0.90b4
#
DISCID=bf0c320d
DTITLE=Eve Selis - Out On A Wire
DYEAR=1998
DGENRE=Country
TTITLE0=Show Me What Love Is
TTITLE1=Memphis
TTITLE2=Beyond The Moon
TTITLE3=Foolish Heart
TTITLE4=Out On A Wire
TTITLE5=Indiana Summer
TTITLE6=Union Mills
TTITLE7=Lonesome Tonight
TTITLE8=Heaven's Road
TTITLE9=Testify
TTITLE10=Carry Me
TTITLE11=Trail Of Tears
TTITLE12=Untitled
EXTD=
EXTT0=
EXTT1=
EXTT2=
EXTT3=
EXTT4=
EXTT5=
EXTT6=
EXTT7=
EXTT8=
EXTT9=
EXTT10=
EXTT11=
EXTT12=
PLAYORDER=
